<?xml version="1.0" encoding="UTF-8"?>
<svg version="1.1" xmlns="http://www.w3.org/2000/svg" width="175" height="204">
<path d="M0 0 C57.75 0 115.5 0 175 0 C175 67.32 175 134.64 175 204 C117.25 204 59.5 204 0 204 C0 136.68 0 69.36 0 0 Z " fill="#1F93E6" transform="translate(0,0)"/>
<path d="M0 0 C57.75 0 115.5 0 175 0 C175 67.32 175 134.64 175 204 C117.25 204 59.5 204 0 204 C0 136.68 0 69.36 0 0 Z M18 14 C17.05862745 16.82411765 16.88274618 18.52918032 16.90234375 21.44921875 C16.90556641 22.29677734 16.90878906 23.14433594 16.91210938 24.01757812 C16.92048828 24.89865234 16.92886719 25.77972656 16.9375 26.6875 C16.94201172 27.58017578 16.94652344 28.47285156 16.95117188 29.39257812 C16.96294996 31.59508073 16.98088519 33.79754885 17 36 C21.62 36 26.24 36 31 36 C31 45.24 31 54.48 31 64 C27.99221479 65.00259507 25.46179353 65.30314642 22.3125 65.5625 C21.31863281 65.64628906 20.32476563 65.73007813 19.30078125 65.81640625 C18.54152344 65.87699219 17.78226563 65.93757813 17 66 C17 69.3 17 72.6 17 76 C21.29 76.33 25.58 76.66 30 77 C30 85.91 30 94.82 30 104 C27.43106162 105.28446919 25.23423663 105.32977144 22.375 105.5625 C21.37210938 105.64628906 20.36921875 105.73007813 19.3359375 105.81640625 C18.56507812 105.87699219 17.79421875 105.93757813 17 106 C17 109.3 17 112.6 17 116 C21.29 116.66 25.58 117.32 30 118 C30.08058764 122.29203802 30.14030584 126.58257868 30.1875 130.875 C30.21263672 132.09832031 30.23777344 133.32164062 30.26367188 134.58203125 C30.27817383 136.33193359 30.27817383 136.33193359 30.29296875 138.1171875 C30.3086792 139.19597168 30.32438965 140.27475586 30.34057617 141.38623047 C30.17199097 142.68004639 30.17199097 142.68004639 30 144 C26.83759418 146.10827055 25.49342531 146.33817465 21.8125 146.625 C20.46091797 146.73714844 20.46091797 146.73714844 19.08203125 146.8515625 C18.39496094 146.90054688 17.70789063 146.94953125 17 147 C16.90069224 152.28355502 16.82832536 157.56655984 16.78027344 162.85083008 C16.76022999 164.64617382 16.73298749 166.44145287 16.69824219 168.23657227 C16.64940151 170.8258465 16.6269588 173.4142534 16.609375 176.00390625 C16.57840729 177.19651817 16.57840729 177.19651817 16.54681396 178.41322327 C16.54429319 184.75645319 18.22411166 188.89753656 22.52734375 193.70703125 C27.25499321 197.41319412 31.09654508 199.2443003 37.11656189 199.26742554 C38.12446274 199.27595551 39.13236359 199.28448547 40.17080688 199.29327393 C41.81283585 199.29191437 41.81283585 199.29191437 43.48803711 199.29052734 C44.64955795 199.29724457 45.8110788 199.30396179 47.00779724 199.31088257 C50.84768957 199.3298819 54.68740734 199.33378758 58.52734375 199.3359375 C60.52168795 199.34073921 62.51603218 199.34554438 64.51037508 199.35085833 C70.77930919 199.36712557 77.04818588 199.37202873 83.31713867 199.37060547 C89.77641446 199.36940369 96.23535631 199.39051627 102.69454759 199.4220928 C108.24800302 199.44827054 113.80134945 199.45897218 119.35486609 199.45769465 C122.66835941 199.45718554 125.98148921 199.46468723 129.29493523 199.48405075 C132.99109566 199.50363068 136.68639426 199.49790342 140.38256836 199.48583984 C141.4752301 199.49707886 142.56789185 199.50831787 143.69366455 199.51989746 C148.26139313 199.48198533 151.43434421 199.2459373 155.66358948 197.40713501 C158.63891402 194.34174569 158.8385684 192.19722152 159 188 C158.39646855 187.99945523 157.79293711 187.99891047 157.17111683 187.99834919 C142.48166306 187.98337787 127.79246639 187.94091699 113.10319233 187.86790943 C105.99950545 187.8332652 98.89601249 187.80790469 91.79223633 187.80444336 C84.93856077 187.80107777 78.08538856 187.77178281 71.23186302 187.72656822 C68.61519395 187.71356371 65.99846661 187.70929591 63.38176918 187.71384621 C59.72052764 187.7187308 56.06072328 187.6927512 52.3996582 187.65942383 C50.77154205 187.67236229 50.77154205 187.67236229 49.11053467 187.68556213 C41.78933156 187.5736107 41.78933156 187.5736107 37.81486511 184.68534851 C35.46407446 181.2070227 35.46601326 179.11932626 36 175 C36.66 174.01 37.32 173.02 38 172 C40.02254009 171.62082577 40.02254009 171.62082577 42.55924988 171.61473083 C43.5195108 171.60508301 44.47977173 171.59543518 45.46913147 171.585495 C46.52627853 171.59007217 47.5834256 171.59464935 48.67260742 171.59936523 C49.78331604 171.59238617 50.89402466 171.5854071 52.03839111 171.57821655 C55.72749292 171.55814558 59.41631703 171.55873963 63.10546875 171.55859375 C65.66417705 171.54682888 68.22287846 171.53346687 70.78157043 171.51856995 C78.2254614 171.47856617 85.66928281 171.45898987 93.11325073 171.44239807 C103.21318339 171.41854839 113.31298579 171.37883488 123.41280556 171.32512093 C127.18345404 171.30879728 130.95397569 171.30501381 134.72465515 171.30210876 C137.04324562 171.29232937 139.3618341 171.28206559 141.68041992 171.27124023 C142.72744583 171.27379318 143.77447174 171.27634613 144.85322571 171.27897644 C151.85427719 171.22991532 157.25592091 170.79420556 163.25 166.875 C169.78608644 160.04181872 169.43413788 152.15419522 169.38818359 143.20922852 C169.39344055 141.94479919 169.39869751 140.68036987 169.40411377 139.37762451 C169.41771905 135.92916792 169.41251674 132.48098244 169.40297651 129.03252149 C169.39534283 125.41058488 169.40243592 121.78867037 169.40713501 118.16673279 C169.41258252 112.08499008 169.40542817 106.00335691 169.39111328 99.92163086 C169.37479598 92.90856595 169.38007252 85.89576286 169.3965925 78.88270432 C169.41024491 72.84336386 169.41210853 66.80410182 169.40427649 60.7647509 C169.39961958 57.16569511 169.39891994 53.56676202 169.40888596 49.96771431 C169.41923101 45.95170946 169.40485723 41.93614959 169.38818359 37.92016602 C169.39729263 36.15013466 169.39729263 36.15013466 169.40658569 34.34434509 C169.34921143 26.86308239 168.95495622 19.6222044 164.0625 13.625 C163.381875 13.08875 162.70125 12.5525 162 12 C161.319375 11.443125 160.63875 10.88625 159.9375 10.3125 C156.56427894 8.02741477 153.73463062 7.87205977 149.77554321 7.85955811 C148.69321915 7.85384796 147.61089508 7.84813782 146.49577332 7.84225464 C144.71436699 7.84057785 144.71436699 7.84057785 142.89697266 7.83886719 C141.64635544 7.83390228 140.39573822 7.82893738 139.10722351 7.82382202 C135.6753411 7.81171208 132.24351963 7.80425503 128.8116231 7.79981136 C126.66727339 7.79687939 124.52292902 7.79277437 122.378582 7.78830719 C115.6686088 7.77463533 108.9586478 7.7649669 102.24866164 7.7611053 C94.50427552 7.75662381 86.76006583 7.73907053 79.01573336 7.7101047 C73.02837946 7.68848804 67.0410752 7.67840105 61.05368268 7.67706418 C57.47812897 7.67601622 53.90274117 7.67011047 50.32722855 7.65224457 C46.3386999 7.63270227 42.35039182 7.63705282 38.36181641 7.64355469 C37.17826065 7.6343399 35.9947049 7.62512512 34.77528381 7.6156311 C33.14333824 7.62398483 33.14333824 7.62398483 31.47842407 7.63250732 C30.53563913 7.63104076 29.59285419 7.6295742 28.62150002 7.6280632 C24.2432364 8.24924853 20.80891908 10.6292971 18 14 Z " fill="#F8FCFD" transform="translate(0,0)"/>
<path d="M0 0 C10.45447699 8.55187986 17.02934659 18.35482933 20.08203125 31.703125 C20.36748863 34.64696906 20.41583112 37.55932804 20.39453125 40.515625 C20.3903418 41.30952637 20.38615234 42.10342773 20.38183594 42.92138672 C20.26638365 48.92613382 19.48824686 54.15430883 17.08203125 59.703125 C16.80359375 60.38246094 16.52515625 61.06179687 16.23828125 61.76171875 C10.26420963 74.97162713 0.19121164 83.15178841 -12.91796875 88.703125 C-16.94598937 90.16829937 -20.32511929 90.80306036 -24.5703125 90.66015625 C-40.22477845 90.1379936 -50.63503129 95.23481124 -63.72338867 103.52563477 C-65.91796875 104.703125 -65.91796875 104.703125 -68.91796875 104.703125 C-69.07418769 99.86033772 -68.99433709 95.55808165 -67.91796875 90.828125 C-65.86480483 81.25705359 -65.86480483 81.25705359 -68.30859375 72.0546875 C-69.53286251 70.23957599 -70.77317543 68.43520731 -72.02734375 66.640625 C-79.73547133 54.66436066 -80.24189616 42.23629445 -77.85546875 28.578125 C-74.51628034 14.70884477 -66.04677495 4.26644734 -54.04296875 -3.171875 C-36.54451548 -12.67040568 -16.28905036 -11.96746557 0 0 Z " fill="#FAFCFB" transform="translate(129.91796875,39.296875)"/>
<path d="M0 0 C1.11503906 0.01289062 2.23007813 0.02578125 3.37890625 0.0390625 C5.11720703 0.08933594 5.11720703 0.08933594 6.890625 0.140625 C8.65212891 0.16769531 8.65212891 0.16769531 10.44921875 0.1953125 C13.3471784 0.2424338 16.24348918 0.30821195 19.140625 0.390625 C19.21471901 4.34154559 19.26919906 8.29219794 19.30541992 12.24365234 C19.32794751 14.24981874 19.3660607 16.25579026 19.40429688 18.26171875 C19.41396484 19.51855469 19.42363281 20.77539062 19.43359375 22.0703125 C19.4493042 23.23288574 19.46501465 24.39545898 19.48120117 25.59326172 C19.36881104 26.5163916 19.2564209 27.43952148 19.140625 28.390625 C15.71968258 30.67125328 14.45875278 30.60987507 10.453125 30.515625 C8.96232422 30.48855469 8.96232422 30.48855469 7.44140625 30.4609375 C6.68214844 30.43773438 5.92289063 30.41453125 5.140625 30.390625 C5.140625 33.690625 5.140625 36.990625 5.140625 40.390625 C6.53087891 40.37322266 6.53087891 40.37322266 7.94921875 40.35546875 C9.14675781 40.34644531 10.34429688 40.33742187 11.578125 40.328125 C12.77308594 40.31652344 13.96804687 40.30492187 15.19921875 40.29296875 C18.140625 40.390625 18.140625 40.390625 19.140625 41.390625 C19.422114 45.86331463 19.37243934 50.34763235 19.390625 54.828125 C19.41125 56.09462891 19.431875 57.36113281 19.453125 58.66601562 C19.45828125 59.87322266 19.4634375 61.08042969 19.46875 62.32421875 C19.48276855 63.9956897 19.48276855 63.9956897 19.49707031 65.70092773 C19.32062988 67.03232788 19.32062988 67.03232788 19.140625 68.390625 C15.71968258 70.67125328 14.45875278 70.60987507 10.453125 70.515625 C9.45925781 70.49757813 8.46539063 70.47953125 7.44140625 70.4609375 C6.68214844 70.43773438 5.92289063 70.41453125 5.140625 70.390625 C5.140625 73.690625 5.140625 76.990625 5.140625 80.390625 C6.5225 80.349375 7.904375 80.308125 9.328125 80.265625 C13.1190752 80.15246231 15.65978281 80.9252741 19.140625 82.390625 C19.25651662 86.66123118 19.32777302 90.93143484 19.390625 95.203125 C19.44089844 97.02553711 19.44089844 97.02553711 19.4921875 98.88476562 C19.50507813 100.04814453 19.51796875 101.21152344 19.53125 102.41015625 C19.55219727 103.48370361 19.57314453 104.55725098 19.59472656 105.66333008 C19.140625 108.390625 19.140625 108.390625 17.41894531 110.23730469 C13.33101157 112.30667878 9.13679587 111.86167851 4.640625 111.828125 C3.69058594 111.84810547 2.74054687 111.86808594 1.76171875 111.88867188 C0.84519531 111.88802734 -0.07132813 111.88738281 -1.015625 111.88671875 C-2.26569336 111.88949829 -2.26569336 111.88949829 -3.54101562 111.89233398 C-6.73765918 111.20055824 -7.9080544 109.9831174 -9.859375 107.390625 C-10.37695312 104.88867188 -10.37695312 104.88867188 -10.390625 102.109375 C-10.39578125 101.10261719 -10.4009375 100.09585938 -10.40625 99.05859375 C-10.39078125 98.01316406 -10.3753125 96.96773438 -10.359375 95.890625 C-10.37484375 94.84519531 -10.3903125 93.79976563 -10.40625 92.72265625 C-10.40109375 91.71589844 -10.3959375 90.70914063 -10.390625 89.671875 C-10.38611328 88.75470703 -10.38160156 87.83753906 -10.37695312 86.89257812 C-9.70457277 83.64231684 -8.42442692 82.43301375 -5.859375 80.390625 C-3.28125 80 -3.28125 80 -0.609375 80.140625 C0.28265625 80.17671875 1.1746875 80.2128125 2.09375 80.25 C2.76921875 80.29640625 3.4446875 80.3428125 4.140625 80.390625 C4.140625 77.420625 4.140625 74.450625 4.140625 71.390625 C2.75875 71.473125 1.376875 71.555625 -0.046875 71.640625 C-3.13072198 71.82473527 -4.78801267 71.42332853 -7.62109375 70.125 C-11.25853309 65.68135683 -10.58270915 60.94978226 -10.484375 55.390625 C-10.50371094 54.2975 -10.52304688 53.204375 -10.54296875 52.078125 C-10.49449071 44.16650806 -10.49449071 44.16650806 -7.62109375 40.65625 C-3.40390951 38.72362243 -0.45634533 39.11617901 4.140625 39.390625 C4.140625 36.420625 4.140625 33.450625 4.140625 30.390625 C3.00173828 30.44283203 3.00173828 30.44283203 1.83984375 30.49609375 C0.84597656 30.52316406 -0.14789063 30.55023438 -1.171875 30.578125 C-2.15800781 30.61292969 -3.14414063 30.64773437 -4.16015625 30.68359375 C-6.859375 30.390625 -6.859375 30.390625 -8.50097656 29.19628906 C-11.27302866 25.51151241 -10.32668177 20.38349435 -10.296875 15.953125 C-10.31685547 14.90318359 -10.33683594 13.85324219 -10.35742188 12.77148438 C-10.35677734 11.76021484 -10.35613281 10.74894531 -10.35546875 9.70703125 C-10.35732178 8.78349854 -10.3591748 7.85996582 -10.36108398 6.90844727 C-9.19041285 1.03344416 -5.49719789 -0.11218771 0 0 Z " fill="#6FBB35" transform="translate(11.859375,35.609375)"/>
<path d="M0 0 C0.03738281 0.95261719 0.07476562 1.90523437 0.11328125 2.88671875 C0.17902344 4.14097656 0.24476562 5.39523438 0.3125 6.6875 C0.39951172 8.54955078 0.39951172 8.54955078 0.48828125 10.44921875 C1.29960509 16.07893917 3.92034089 19.20169669 8 23 C7 25 6 27 5 29 C4.53757622 33.08474339 4.48505287 35.23530895 6.81095886 38.68925476 C11.53639916 42.11325846 15.69777619 41.70473606 21.3996582 41.65942383 C22.55130966 41.66990753 23.70296112 41.68039124 24.88951111 41.69119263 C28.6935407 41.71997818 32.4966621 41.71364641 36.30078125 41.70703125 C38.93923587 41.72014403 41.57768044 41.73544695 44.21611023 41.75285339 C50.44919292 41.79028233 56.68205744 41.80244067 62.91524142 41.8054778 C70.01327166 41.81016992 77.11108353 41.84309802 84.2090174 41.87837565 C98.80596846 41.95029293 113.40287922 41.98682416 128 42 C127.8385096 46.19875028 127.64044676 48.34154884 124.66061401 51.40515137 C119.51983603 53.64487473 114.9824087 53.55889994 109.43017578 53.51757812 C108.2717215 53.5245874 107.11326721 53.53159668 105.91970825 53.53881836 C102.09466496 53.55640622 98.27036318 53.54477031 94.4453125 53.53125 C91.78261397 53.53394504 89.11993781 53.53782176 86.45724487 53.54284668 C80.87717688 53.55011554 75.29732092 53.54055773 69.71728516 53.52148438 C63.28128405 53.49973816 56.84579032 53.50675321 50.4098016 53.52879 C44.87070401 53.54699147 39.33175844 53.54947864 33.79264057 53.53903532 C30.49031522 53.53282352 27.18827819 53.53348799 23.88595963 53.54518127 C20.19983161 53.55536758 16.51466958 53.5398135 12.82861328 53.51757812 C11.74471313 53.52567505 10.66081299 53.53377197 9.54406738 53.54211426 C2.08745608 53.45900826 -3.30114752 52.26369336 -9.05859375 47.18359375 C-9.74115234 46.31927734 -9.74115234 46.31927734 -10.4375 45.4375 C-10.91058594 44.85871094 -11.38367188 44.27992188 -11.87109375 43.68359375 C-14.63043147 39.56845688 -14.12766007 35.13651064 -14.09765625 30.39453125 C-14.0962413 29.55532639 -14.09482635 28.71612152 -14.09336853 27.85148621 C-14.08777215 25.17178784 -14.07522035 22.4921731 -14.0625 19.8125 C-14.05748453 17.99544392 -14.05292171 16.17838652 -14.04882812 14.36132812 C-14.03780391 9.90751987 -14.02054178 5.45377411 -14 1 C-12.41693353 0.83081732 -10.83353281 0.66476064 -9.25 0.5 C-8.36828125 0.4071875 -7.4865625 0.314375 -6.578125 0.21875 C-4 0 -4 0 0 0 Z " fill="#0A3FB4" transform="translate(31,146)"/>
<path d="M0 0 C0.63679688 0.33386719 1.27359375 0.66773437 1.9296875 1.01171875 C4.29281104 2.13977584 5.89534982 2.26784007 8.5 2.25 C9.2528125 2.25515625 10.005625 2.2603125 10.78125 2.265625 C13.04012771 2.1243387 13.04012771 2.1243387 15.00390625 0.98046875 C18.60208837 -0.78693577 22.23457768 -0.04407953 26 1 C29.60679903 3.82271228 31.95785073 6.92143783 34 11 C34.3984375 14.48046875 34.3984375 14.48046875 34.375 18.1875 C34.38660156 20.03408203 34.38660156 20.03408203 34.3984375 21.91796875 C34.26695313 22.93503906 34.13546875 23.95210937 34 25 C30.87047425 27.0863505 30.13949507 27.2537096 26.57617188 27.2746582 C25.23963562 27.28895622 25.23963562 27.28895622 23.87609863 27.30354309 C22.91667358 27.30263168 21.95724854 27.30172028 20.96875 27.30078125 C19.98128784 27.30506638 18.99382568 27.3093515 17.97644043 27.31376648 C15.88843554 27.31951012 13.80041063 27.32000979 11.71240234 27.31567383 C8.51234964 27.3125122 5.31321973 27.33597867 2.11328125 27.36132812 C0.08593867 27.36360089 -1.9414064 27.36430472 -3.96875 27.36328125 C-4.92817505 27.372491 -5.8876001 27.38170074 -6.87609863 27.39118958 C-7.7671228 27.38496078 -8.65814697 27.37873199 -9.57617188 27.37231445 C-10.75173645 27.37325859 -10.75173645 27.37325859 -11.9510498 27.3742218 C-14.54626379 26.90022997 -15.42677549 26.08770886 -17 24 C-17.85011859 18.2636142 -17.82838956 12.78422367 -15.375 7.5 C-14.199375 6.2625 -14.199375 6.2625 -13 5 C-12.55269531 4.51789063 -12.10539062 4.03578125 -11.64453125 3.5390625 C-7.88118713 -0.11329829 -5.10244578 -0.66142816 0 0 Z " fill="#FB832C" transform="translate(92,81)"/>
<path d="M0 0 C0.86689453 0.00386719 1.73378906 0.00773437 2.62695312 0.01171875 C3.97370117 0.04845703 3.97370117 0.04845703 5.34765625 0.0859375 C6.24162109 0.08722656 7.13558594 0.08851562 8.05664062 0.08984375 C12.70707015 0.15198757 16.11006291 0.55158369 20.41015625 2.4609375 C20.52604787 6.73154368 20.59730427 11.00174734 20.66015625 15.2734375 C20.71042969 17.09584961 20.71042969 17.09584961 20.76171875 18.95507812 C20.77460938 20.11845703 20.7875 21.28183594 20.80078125 22.48046875 C20.82172852 23.55401611 20.84267578 24.62756348 20.86425781 25.73364258 C20.41015625 28.4609375 20.41015625 28.4609375 18.68847656 30.30761719 C14.60054282 32.37699128 10.40632712 31.93199101 5.91015625 31.8984375 C4.48509766 31.9284082 4.48509766 31.9284082 3.03125 31.95898438 C2.11472656 31.95833984 1.19820312 31.95769531 0.25390625 31.95703125 C-0.57947266 31.95888428 -1.41285156 31.9607373 -2.27148438 31.96264648 C-5.46812793 31.27087074 -6.63852315 30.0534299 -8.58984375 27.4609375 C-9.10742188 24.95898438 -9.10742188 24.95898438 -9.12109375 22.1796875 C-9.12625 21.17292969 -9.13140625 20.16617188 -9.13671875 19.12890625 C-9.12125 18.08347656 -9.10578125 17.03804687 -9.08984375 15.9609375 C-9.1053125 14.91550781 -9.12078125 13.87007812 -9.13671875 12.79296875 C-9.1315625 11.78621094 -9.12640625 10.77945313 -9.12109375 9.7421875 C-9.11658203 8.82501953 -9.11207031 7.90785156 -9.10742188 6.96289062 C-8.06368465 1.91750425 -4.95964883 -0.05191218 0 0 Z " fill="#FB892A" transform="translate(10.58984375,115.5390625)"/>
<path d="M0 0 C1.11503906 0.01289062 2.23007813 0.02578125 3.37890625 0.0390625 C5.11720703 0.08933594 5.11720703 0.08933594 6.890625 0.140625 C8.65212891 0.16769531 8.65212891 0.16769531 10.44921875 0.1953125 C13.3471784 0.2424338 16.24348918 0.30821195 19.140625 0.390625 C19.21471901 4.34154559 19.26919906 8.29219794 19.30541992 12.24365234 C19.32794751 14.24981874 19.3660607 16.25579026 19.40429688 18.26171875 C19.41396484 19.51855469 19.42363281 20.77539062 19.43359375 22.0703125 C19.4493042 23.23288574 19.46501465 24.39545898 19.48120117 25.59326172 C19.36881104 26.5163916 19.2564209 27.43952148 19.140625 28.390625 C14.56797069 31.43906121 10.01847896 30.71950093 4.640625 30.703125 C3.05314453 30.72729492 3.05314453 30.72729492 1.43359375 30.75195312 C0.41910156 30.75259766 -0.59539063 30.75324219 -1.640625 30.75390625 C-3.0337793 30.75837769 -3.0337793 30.75837769 -4.45507812 30.76293945 C-6.859375 30.390625 -6.859375 30.390625 -8.65844727 29.19189453 C-11.19086008 25.39353272 -10.32654053 20.36250104 -10.296875 15.953125 C-10.31685547 14.90318359 -10.33683594 13.85324219 -10.35742188 12.77148438 C-10.35677734 11.76021484 -10.35613281 10.74894531 -10.35546875 9.70703125 C-10.35732178 8.78349854 -10.3591748 7.85996582 -10.36108398 6.90844727 C-9.19041285 1.03344416 -5.49719789 -0.11218771 0 0 Z " fill="#FCC01D" transform="translate(11.859375,35.609375)"/>
<path d="M0 0 C4.2419971 4.13853375 6.23958645 8.19924096 7.0625 14.0625 C6.25266127 19.63014127 4.08733326 23.12038895 -0.0625 26.875 C-4.1105843 29.64474189 -6.48168835 29.89966223 -11.4375 29.5 C-16.0512535 27.86913109 -20.01330057 25.92059897 -22.4375 21.5 C-24.38642318 15.65323045 -24.43094445 9.56047738 -21.75 4 C-15.7245416 -2.51400908 -8.16893874 -3.56462782 0 0 Z " fill="#FB8F31" transform="translate(109.4375,49.5)"/>
<path d="M0 0 C0 2.31 0 4.62 0 7 C-0.82302597 6.99723462 -0.82302597 6.99723462 -1.66267872 6.99441338 C-15.00769305 6.9502624 -28.35269461 6.91728473 -41.6977663 6.89637566 C-48.1513217 6.88592517 -54.60482449 6.87174287 -61.05834961 6.84912109 C-67.28286953 6.82743786 -73.50733877 6.81544091 -79.73189354 6.81024551 C-82.11021918 6.80654162 -84.48854195 6.79930916 -86.86684608 6.78853989 C-90.19034511 6.77408513 -93.51363295 6.77201954 -96.8371582 6.77294922 C-98.32177299 6.76216339 -98.32177299 6.76216339 -99.83638 6.75115967 C-101.19303772 6.75528366 -101.19303772 6.75528366 -102.57710266 6.75949097 C-103.36339208 6.75764738 -104.14968149 6.75580379 -104.95979786 6.75390434 C-107.31162466 6.88197988 -107.31162466 6.88197988 -110 9 C-110.36162029 10.32594105 -110.69728039 11.65938457 -111 13 C-114.21451269 14.60725635 -117.43612536 14.05748185 -121 14 C-121.33 14.66 -121.66 15.32 -122 16 C-124.47342266 12.28986601 -124.38503486 10.38939738 -124 6 C-122.77377892 3.80935955 -122.77377892 3.80935955 -121 2 C-118.84882545 1.49498463 -118.84882545 1.49498463 -116.30703735 1.48774719 C-115.34251144 1.47527954 -114.37798553 1.46281189 -113.38423157 1.44996643 C-112.32753769 1.45656784 -111.27084381 1.46316925 -110.18212891 1.4699707 C-109.06806168 1.46123932 -107.95399445 1.45250793 -106.8061676 1.44351196 C-103.11280387 1.41905807 -99.41999713 1.42255236 -95.7265625 1.42578125 C-93.16449016 1.41334234 -90.60242638 1.39900987 -88.04037476 1.38285828 C-81.9761025 1.34863964 -75.91200999 1.33142739 -69.84765375 1.3230831 C-58.35117411 1.30635449 -46.85484582 1.24682404 -35.35850143 1.19130516 C-31.5800249 1.17594774 -27.80160407 1.16876445 -24.02310181 1.16316223 C-21.70762099 1.15614529 -19.39214042 1.14904431 -17.07666016 1.1418457 C-15.49769203 1.14263878 -15.49769203 1.14263878 -13.88682556 1.14344788 C-12.91666 1.1394397 -11.94649445 1.13543152 -10.94692993 1.13130188 C-9.68761374 1.12941597 -9.68761374 1.12941597 -8.40285683 1.12749195 C-5.57128605 0.97725309 -2.79937791 0 0 0 Z " fill="#C8E0F4" transform="translate(159,169)"/>
<path d="M0 0 C0.66 0.33 1.32 0.66 2 1 C1.98952637 1.68626465 1.97905273 2.3725293 1.96826172 3.07958984 C1.92678126 6.17802289 1.90069931 9.27639761 1.875 12.375 C1.85824219 13.45523438 1.84148437 14.53546875 1.82421875 15.6484375 C1.81777344 16.6796875 1.81132813 17.7109375 1.8046875 18.7734375 C1.79421387 19.72653809 1.78374023 20.67963867 1.77294922 21.66162109 C1.76868133 24.1923213 1.76868133 24.1923213 4 26 C6.66242821 26.46290221 6.66242821 26.46290221 9.625 26.625 C10.62789062 26.69976562 11.63078125 26.77453125 12.6640625 26.8515625 C13.43492188 26.90054688 14.20578125 26.94953125 15 27 C15 29.97 15 32.94 15 36 C12.78645833 36.16276042 10.57291667 36.32552083 8.359375 36.48828125 C5.46844721 37.11528711 4.13564338 37.95255836 2 40 C1.38486022 42.55126187 1.38486022 42.55126187 1.46875 45.4375 C1.46359375 46.49710938 1.4584375 47.55671875 1.453125 48.6484375 C1.46859375 49.75445312 1.4840625 50.86046875 1.5 52 C1.48453125 53.10601562 1.4690625 54.21203125 1.453125 55.3515625 C1.45828125 56.41117188 1.4634375 57.47078125 1.46875 58.5625 C1.47326172 59.53316406 1.47777344 60.50382812 1.48242188 61.50390625 C1.78170905 64.13229837 1.78170905 64.13229837 3.88574219 65.80786133 C6.28359286 67.15990576 8.01662307 67.4865164 10.75 67.6875 C12.1525 67.790625 13.555 67.89375 15 68 C15 70.97 15 73.94 15 77 C9.06 77.495 9.06 77.495 3 78 C2.00544091 80.98367726 1.80440368 83.2004192 1.68359375 86.32421875 C1.62075195 87.86625977 1.62075195 87.86625977 1.55664062 89.43945312 C1.51732422 90.51130859 1.47800781 91.58316406 1.4375 92.6875 C1.39431641 93.77095703 1.35113281 94.85441406 1.30664062 95.97070312 C1.20053162 98.64700791 1.09847639 101.32340526 1 104 C0.34 103.67 -0.32 103.34 -1 103 C-1.02312079 89.71812591 -1.04091374 76.43625657 -1.05181217 63.15436649 C-1.05704158 56.9877508 -1.06414027 50.82114882 -1.07543945 44.65454102 C-1.08626629 38.70883994 -1.0922764 32.76315211 -1.09487724 26.81744194 C-1.09673186 24.54353057 -1.10035317 22.26961996 -1.10573006 19.99571419 C-1.11293778 16.8227288 -1.11399106 13.64979883 -1.11352539 10.47680664 C-1.11712067 9.52662659 -1.12071594 8.57644653 -1.12442017 7.59747314 C-1.11405216 1.11405216 -1.11405216 1.11405216 0 0 Z " fill="#FCFAF0" transform="translate(1,39)"/>
<path d="M0 0 C0.33 0 0.66 0 1 0 C1.07016141 16.94209102 1.12302304 33.88413654 1.15543652 50.82633972 C1.17088841 58.69335799 1.19194573 66.56028586 1.22631836 74.42724609 C1.25627222 81.28615633 1.27558719 88.14500108 1.28226548 95.00397491 C1.28616764 98.633897 1.29530295 102.26363176 1.31719017 105.89349365 C1.34145756 109.9512148 1.34196616 114.00861272 1.34057617 118.06640625 C1.351362 119.26259079 1.36214783 120.45877533 1.3732605 121.69120789 C1.34681461 128.83014571 1.17540814 135.49907931 -3.8671875 141.05859375 C-4.52976562 141.51363281 -5.19234375 141.96867188 -5.875 142.4375 C-6.53242188 142.91058594 -7.18984375 143.38367188 -7.8671875 143.87109375 C-11.70909064 145.90462856 -15.64230891 146.12498092 -19.92915344 146.12025452 C-20.89524033 146.12162918 -21.86132721 146.12300385 -22.85668945 146.12442017 C-23.90469727 146.12082489 -24.95270508 146.11722961 -26.0324707 146.11352539 C-27.70142647 146.11374443 -27.70142647 146.11374443 -29.40409851 146.1139679 C-33.07801266 146.1132718 -36.75187597 146.1054935 -40.42578125 146.09765625 C-42.97454297 146.095791 -45.52330505 146.0943676 -48.07206726 146.09336853 C-54.09262536 146.08994182 -60.11316167 146.08206204 -66.13371104 146.07201904 C-72.98980042 146.06083118 -79.84589067 146.05534072 -86.70198691 146.05032361 C-100.80133468 146.0398787 -114.90066634 146.02229593 -129 146 C-129 145.34 -129 144.68 -129 144 C-128.39646855 143.99945523 -127.79293711 143.99891047 -127.17111683 143.99834919 C-112.48166306 143.98337787 -97.79246639 143.94091699 -83.10319233 143.86790943 C-75.99950545 143.8332652 -68.89601249 143.80790469 -61.79223633 143.80444336 C-54.93856077 143.80107777 -48.08538856 143.77178281 -41.23186302 143.72656822 C-38.61519395 143.71356371 -35.99846661 143.70929591 -33.38176918 143.71384621 C-29.72052764 143.7187308 -26.06072328 143.6927512 -22.3996582 143.65942383 C-21.31424744 143.66804947 -20.22883667 143.67667511 -19.11053467 143.68556213 C-13.02383627 143.62027536 -13.02383627 143.62027536 -7.85905457 140.58500671 C-6.32045047 138.44558488 -5.10220522 136.64276139 -4.1875 134.1875 C-3.5996875 132.6096875 -3.5996875 132.6096875 -3 131 C-2.34 131 -1.68 131 -1 131 C-0.67 87.77 -0.34 44.54 0 0 Z " fill="#3280CF" transform="translate(168,25)"/>
<path d="M0 0 C0 9.24 0 18.48 0 28 C-4.62 28 -9.24 28 -14 28 C-14.08115993 24.93696422 -14.14057409 21.87609185 -14.1875 18.8125 C-14.21263672 17.94818359 -14.23777344 17.08386719 -14.26367188 16.19335938 C-14.33269967 10.18794121 -13.47618404 6.88888138 -9.5 2.25 C-6.40980433 -0.32516306 -4.03558437 0 0 0 Z " fill="#0C47B8" transform="translate(31,8)"/>
<path d="M0 0 C0 1.32 0 2.64 0 4 C-8.45938012 4.02336875 -16.91874632 4.04103824 -25.37815094 4.05181217 C-29.30793921 4.05698811 -33.23770508 4.06398719 -37.16748047 4.07543945 C-40.97357904 4.08645943 -44.77965634 4.09231643 -48.58576965 4.09487724 C-50.02391392 4.09669763 -51.46205728 4.10025033 -52.90019226 4.10573006 C-62.97584506 4.14252655 -72.953528 3.7383326 -83 3 C-83 2.34 -83 1.68 -83 1 C-73.06407704 0.86915484 -63.12814862 0.73873308 -53.19221306 0.60884857 C-48.5783346 0.54852181 -43.96445813 0.48805041 -39.35058594 0.42724609 C-34.8961544 0.36854834 -30.44171799 0.31023362 -25.98727798 0.25218201 C-24.28967231 0.22999145 -22.59206842 0.20766397 -20.8944664 0.18519592 C-18.51281945 0.15369805 -16.13116656 0.12269142 -13.74951172 0.09179688 C-13.05107651 0.08244614 -12.3526413 0.0730954 -11.63304138 0.0634613 C-7.75507402 0.01373118 -3.87827494 -0.00884495 0 0 Z " fill="#D8E4F3" transform="translate(159,178)"/>
<path d="M0 0 C2.31 0 4.62 0 7 0 C7.07409401 3.95092059 7.12857406 7.90157294 7.16479492 11.85302734 C7.18732251 13.85919374 7.2254357 15.86516526 7.26367188 17.87109375 C7.27333984 19.12792969 7.28300781 20.38476562 7.29296875 21.6796875 C7.3086792 22.84226074 7.32438965 24.00483398 7.34057617 25.20263672 C7.22818604 26.1257666 7.1157959 27.04889648 7 28 C2.42734569 31.04843621 -2.12214604 30.32887593 -7.5 30.3125 C-9.08748047 30.33666992 -9.08748047 30.33666992 -10.70703125 30.36132812 C-11.72152344 30.36197266 -12.73601563 30.36261719 -13.78125 30.36328125 C-15.1744043 30.36775269 -15.1744043 30.36775269 -16.59570312 30.37231445 C-19.42722899 29.93384198 -20.31885649 29.28260935 -22 27 C-22.29296875 24.73828125 -22.29296875 24.73828125 -22.1875 22.3125 C-22.16042969 21.50425781 -22.13335938 20.69601563 -22.10546875 19.86328125 C-22.07066406 19.24839844 -22.03585938 18.63351563 -22 18 C-21.67 18 -21.34 18 -21 18 C-20.8046875 20.01822917 -20.609375 22.03645833 -20.4140625 24.0546875 C-20.13625251 26.22668245 -20.13625251 26.22668245 -18 28 C-15.96939341 28.36894582 -15.96939341 28.36894582 -13.6484375 28.4140625 C-12.79765625 28.45273438 -11.946875 28.49140625 -11.0703125 28.53125 C-10.18085938 28.5621875 -9.29140625 28.593125 -8.375 28.625 C-7.4778125 28.66367188 -6.580625 28.70234375 -5.65625 28.7421875 C-3.4377073 28.83659357 -1.21917597 28.92216748 1 29 C0.67 28.34 0.34 27.68 0 27 C-0.08527628 24.96767366 -0.10716135 22.93252994 -0.09765625 20.8984375 C-0.09443359 19.68671875 -0.09121094 18.475 -0.08789062 17.2265625 C-0.07951172 15.95554687 -0.07113281 14.68453125 -0.0625 13.375 C-0.05798828 12.09625 -0.05347656 10.8175 -0.04882812 9.5 C-0.03701203 6.33328708 -0.02053815 3.16666644 0 0 Z " fill="#F09816" transform="translate(24,36)"/>
<path d="M0 0 C1.98 0 3.96 0 6 0 C8.66219602 2.66219602 7.28408528 10.29474475 7.3125 13.875 C7.34150391 15.08542969 7.37050781 16.29585937 7.40039062 17.54296875 C7.40876953 18.70183594 7.41714844 19.86070312 7.42578125 21.0546875 C7.44036377 22.12187012 7.45494629 23.18905273 7.4699707 24.28857422 C7 27 7 27 5.13452148 28.85327148 C2.49154941 30.2731548 0.73142763 30.30518793 -2.25 30.1875 C-3.14203125 30.16042969 -4.0340625 30.13335937 -4.953125 30.10546875 C-5.62859375 30.07066406 -6.3040625 30.03585938 -7 30 C-7 29.34 -7 28.68 -7 28 C-3.535 27.505 -3.535 27.505 0 27 C0 18.09 0 9.18 0 0 Z " fill="#DB6435" transform="translate(24,117)"/>
<path d="M0 0 C2.5 0.125 2.5 0.125 3.5 1.125 C3.781489 5.59768963 3.73181434 10.08200735 3.75 14.5625 C3.770625 15.82900391 3.79125 17.09550781 3.8125 18.40039062 C3.81765625 19.60759766 3.8228125 20.81480469 3.828125 22.05859375 C3.84214355 23.7300647 3.84214355 23.7300647 3.85644531 25.43530273 C3.73881836 26.32290283 3.62119141 27.21050293 3.5 28.125 C0.07905758 30.40562828 -1.18187222 30.34425007 -5.1875 30.25 C-6.67830078 30.22292969 -6.67830078 30.22292969 -8.19921875 30.1953125 C-8.95847656 30.17210938 -9.71773437 30.14890625 -10.5 30.125 C-10.5 29.795 -10.5 29.465 -10.5 29.125 C-6.54 28.63 -6.54 28.63 -2.5 28.125 C-2.66226074 27.57610107 -2.82452148 27.02720215 -2.99169922 26.46166992 C-3.56516728 23.82542458 -3.62956251 21.43600214 -3.6328125 18.73828125 C-3.63410156 17.71798828 -3.63539062 16.69769531 -3.63671875 15.64648438 C-3.63091797 14.05803711 -3.63091797 14.05803711 -3.625 12.4375 C-3.62886719 11.36693359 -3.63273437 10.29636719 -3.63671875 9.19335938 C-3.63542969 8.17693359 -3.63414063 7.16050781 -3.6328125 6.11328125 C-3.63168457 5.18040283 -3.63055664 4.24752441 -3.62939453 3.28637695 C-3.44211093 0.15803402 -3.14755671 0.15737784 0 0 Z " fill="#4FA02F" transform="translate(27.5,75.875)"/>
<path d="M0 0 C0.33 0 0.66 0 1 0 C1.07016141 16.94209102 1.12302304 33.88413654 1.15543652 50.82633972 C1.17088841 58.69335799 1.19194573 66.56028586 1.22631836 74.42724609 C1.25627222 81.28615633 1.27558719 88.14500108 1.28226548 95.00397491 C1.28616764 98.633897 1.29530295 102.26363176 1.31719017 105.89349365 C1.34145756 109.9512148 1.34196616 114.00861272 1.34057617 118.06640625 C1.35675491 119.86068306 1.35675491 119.86068306 1.3732605 121.69120789 C1.34674707 128.84837736 1.24120919 135.67822538 -4.04296875 141.09375 C-4.75066406 141.5578125 -5.45835937 142.021875 -6.1875 142.5 C-7.26064453 143.22703125 -7.26064453 143.22703125 -8.35546875 143.96875 C-8.89816406 144.3090625 -9.44085938 144.649375 -10 145 C-10 144.01 -10 143.02 -10 142 C-9.401875 141.4225 -8.80375 140.845 -8.1875 140.25 C-5.38766781 137.37017261 -4.43572229 134.73287795 -3 131 C-2.34 131 -1.68 131 -1 131 C-0.67 87.77 -0.34 44.54 0 0 Z " fill="#378BBF" transform="translate(168,25)"/>
<path d="M0 0 C1.92453003 0.21994629 1.92453003 0.21994629 3.88793945 0.44433594 C4.91368828 0.55270782 4.91368828 0.55270782 5.9601593 0.66326904 C8.14324814 0.8985472 10.32162362 1.16319333 12.5012207 1.42871094 C13.98082314 1.59341682 15.46064087 1.75620091 16.94067383 1.91699219 C20.56778549 2.31529826 24.19124773 2.74000642 27.8137207 3.17871094 C27.8137207 3.50871094 27.8137207 3.83871094 27.8137207 4.17871094 C26.62133789 4.22769531 25.42895508 4.27667969 24.20043945 4.32714844 C22.63401002 4.40218697 21.06760491 4.47773434 19.5012207 4.55371094 C18.71553711 4.58464844 17.92985352 4.61558594 17.12036133 4.64746094 C15.984375 4.70546875 15.984375 4.70546875 14.82543945 4.76464844 C13.78069458 4.81177979 13.78069458 4.81177979 12.71484375 4.85986328 C10.48839331 5.09989347 10.48839331 5.09989347 7.8137207 7.17871094 C7.45210042 8.50465198 7.11644032 9.83809551 6.8137207 11.17871094 C3.59920801 12.78596728 0.37759535 12.23619279 -3.1862793 12.17871094 C-3.5162793 12.83871094 -3.8462793 13.49871094 -4.1862793 14.17871094 C-6.65970195 10.46857695 -6.57131415 8.56810831 -6.1862793 4.17871094 C-4.5415759 0.76035164 -3.85296039 0.21610352 0 0 Z " fill="#D0E1F2" transform="translate(41.186279296875,170.8212890625)"/>
<path d="M0 0 C15.00355778 -0.09354503 30.00709291 -0.16402893 45.01088047 -0.20724869 C51.97781195 -0.22785206 58.94456197 -0.25592968 65.91137695 -0.30175781 C72.63519217 -0.3459663 79.35877996 -0.36914041 86.08274651 -0.37950897 C88.64758203 -0.38689775 91.21240729 -0.40132622 93.77716255 -0.42292023 C97.37062976 -0.45197128 100.96331895 -0.45595511 104.55688477 -0.45410156 C105.6164035 -0.46848267 106.67592224 -0.48286377 107.76754761 -0.49768066 C114.90146456 -0.45788318 119.40320881 0.62901633 124.7421875 5.6328125 C127.60065443 9.39810342 129.13077499 11.42995117 129.09765625 16.1328125 C129.09443359 16.93847656 129.09121094 17.74414062 129.08789062 18.57421875 C129.07951172 19.41597656 129.07113281 20.25773437 129.0625 21.125 C129.05798828 21.97449219 129.05347656 22.82398437 129.04882812 23.69921875 C129.03702874 25.79950909 129.01909306 27.8997633 129 30 C128.67 30 128.34 30 128 30 C127.505 21.09 127.505 21.09 127 12 C125.35 11.67 123.7 11.34 122 11 C122.99 10.67 123.98 10.34 125 10 C125 9.34 125 8.68 125 8 C123.35 8 121.7 8 120 8 C120 7.01 120 6.02 120 5 C115.45282992 0.81629596 109.6744952 1.55975664 103.87573242 1.56762695 C102.1921463 1.55233948 102.1921463 1.55233948 100.47454834 1.53674316 C96.76813797 1.50657167 93.06198588 1.49734057 89.35546875 1.48828125 C86.78427773 1.47143771 84.21309497 1.45328791 81.641922 1.43388367 C75.5682617 1.3912006 69.49466841 1.36168345 63.42090636 1.33856028 C56.50427673 1.31149241 49.58778591 1.26758195 42.67125547 1.22227156 C28.4475817 1.12946844 14.22385704 1.05776792 0 1 C0 0.67 0 0.34 0 0 Z " fill="#27A7E0" transform="translate(39,8)"/>
<path d="M0 0 C0 2.31 0 4.62 0 7 C-8.25 6.67 -16.5 6.34 -25 6 C-25 5.34 -25 4.68 -25 4 C-32.26 4 -39.52 4 -47 4 C-47 3.67 -47 3.34 -47 3 C-42.30208838 2.09194235 -37.70447551 1.80883788 -32.93359375 1.71875 C-32.17708023 1.70034058 -31.42056671 1.68193115 -30.64112854 1.66296387 C-27.42795878 1.5848734 -24.21459838 1.5166649 -21.0012207 1.44775391 C-18.64524787 1.39579618 -16.28943925 1.33865106 -13.93359375 1.28125 C-12.85216347 1.26088684 -12.85216347 1.26088684 -11.74888611 1.2401123 C-7.80102273 1.14319569 -3.86025042 0 0 0 Z " fill="#BEDDFB" transform="translate(159,169)"/>
<path d="M0 0 C0 4.62 0 9.24 0 14 C-4.62 13.34 -9.24 12.68 -14 12 C-14 8.7 -14 5.4 -14 2 C-13.22914062 1.93941406 -12.45828125 1.87882812 -11.6640625 1.81640625 C-10.15972656 1.69072266 -10.15972656 1.69072266 -8.625 1.5625 C-7.62726562 1.48128906 -6.62953125 1.40007812 -5.6015625 1.31640625 C-3.59680391 1.07258426 -1.89294725 0 0 0 Z " fill="#1147A7" transform="translate(31,104)"/>
<path d="M0 0 C0.66 0 1.32 0 2 0 C2 4.29 2 8.58 2 13 C-4.93 12.505 -4.93 12.505 -12 12 C-12 8.7 -12 5.4 -12 2 C-11.21753906 1.93941406 -10.43507813 1.87882812 -9.62890625 1.81640625 C-8.61699219 1.73261719 -7.60507812 1.64882812 -6.5625 1.5625 C-5.55316406 1.48128906 -4.54382813 1.40007812 -3.50390625 1.31640625 C-1.06359221 1.26788532 -1.06359221 1.26788532 0 0 Z " fill="#0F47B0" transform="translate(29,64)"/>
<path d="M0 0 C0.33 0.66 0.66 1.32 1 2 C0.67 2.99 0.34 3.98 0 5 C0.66 5.33 1.32 5.66 2 6 C2 6.66 2 7.32 2 8 C-3.95932208 10.36682295 -9.5505135 11.94954199 -16 11 C-17.34200897 10.35097447 -18.67570198 9.68443917 -20 9 C-22.32495277 8.61250787 -24.65851268 8.27017161 -27 8 C-27 7.67 -27 7.34 -27 7 C-24.36 7 -21.72 7 -19 7 C-19 6.01 -19 5.02 -19 4 C-18.319375 4.165 -17.63875 4.33 -16.9375 4.5 C-11.73671928 5.38523927 -8.3076755 5.7507026 -3.625 3.0625 C-1.74985059 1.6018668 -1.74985059 1.6018668 0 0 Z " fill="#FDF9EC" transform="translate(112,73)"/>
<path d="M0 0 C2.31 0 4.62 0 7 0 C7.07409401 3.95092059 7.12857406 7.90157294 7.16479492 11.85302734 C7.18732251 13.85919374 7.2254357 15.86516526 7.26367188 17.87109375 C7.27333984 19.12792969 7.28300781 20.38476562 7.29296875 21.6796875 C7.3086792 22.84226074 7.32438965 24.00483398 7.34057617 25.20263672 C7.22818604 26.1257666 7.1157959 27.04889648 7 28 C2.42734569 31.04843621 -2.12214604 30.32887593 -7.5 30.3125 C-9.08748047 30.33666992 -9.08748047 30.33666992 -10.70703125 30.36132812 C-11.72152344 30.36197266 -12.73601563 30.36261719 -13.78125 30.36328125 C-15.1744043 30.36775269 -15.1744043 30.36775269 -16.59570312 30.37231445 C-19.42722899 29.93384198 -20.31885649 29.28260935 -22 27 C-22.29296875 24.73828125 -22.29296875 24.73828125 -22.1875 22.3125 C-22.16042969 21.50425781 -22.13335938 20.69601563 -22.10546875 19.86328125 C-22.07066406 19.24839844 -22.03585938 18.63351563 -22 18 C-21.67 18 -21.34 18 -21 18 C-20.8046875 20.01822917 -20.609375 22.03645833 -20.4140625 24.0546875 C-20.13625251 26.22668245 -20.13625251 26.22668245 -18 28 C-15.96939341 28.36894582 -15.96939341 28.36894582 -13.6484375 28.4140625 C-12.79765625 28.45273438 -11.946875 28.49140625 -11.0703125 28.53125 C-10.18085938 28.5621875 -9.29140625 28.593125 -8.375 28.625 C-7.4778125 28.66367188 -6.580625 28.70234375 -5.65625 28.7421875 C-3.4377073 28.83659357 -1.21917597 28.92216748 1 29 C1 28.01 1 27.02 1 26 C1.66 26 2.32 26 3 26 C3.9731681 23.0804957 4.1929546 20.94555049 4.31640625 17.89453125 C4.35830078 16.91162109 4.40019531 15.92871094 4.44335938 14.91601562 C4.48267578 13.89185547 4.52199219 12.86769531 4.5625 11.8125 C4.60568359 10.77673828 4.64886719 9.74097656 4.69335938 8.67382812 C4.79944366 6.1160181 4.90150146 3.55811155 5 1 C3.35 1 1.7 1 0 1 C0 0.67 0 0.34 0 0 Z " fill="#CCA650" transform="translate(24,36)"/>
<path d="M0 0 C0.99 0 1.98 0 3 0 C3.97778632 3.78077375 4.91700862 7.4501821 5.5 11.3125 C5.85719109 14.21170331 5.85719109 14.21170331 8 17 C9.68404622 24.58552991 8.77893926 32.35441162 8 40 C6.515 40.495 6.515 40.495 5 41 C5.0314209 40.09459473 5.0314209 40.09459473 5.06347656 39.17089844 C5.41089299 27.63579338 5.70024885 17.70421635 1 7 C0.31782813 5.00523536 -0.35261091 3.00632296 -1 1 C-0.67 0.67 -0.34 0.34 0 0 Z " fill="#37A7DE" transform="translate(144,52)"/>
<path d="M0 0 C3.35386761 -0.1171893 6.70720149 -0.18757584 10.0625 -0.25 C11.00544922 -0.28351562 11.94839844 -0.31703125 12.91992188 -0.3515625 C20.07410633 -0.45127239 24.39309492 0.6195374 29.7421875 5.6328125 C32.60065443 9.39810342 34.13077499 11.42995117 34.09765625 16.1328125 C34.09443359 16.93847656 34.09121094 17.74414062 34.08789062 18.57421875 C34.07532227 19.83685547 34.07532227 19.83685547 34.0625 21.125 C34.05798828 21.97449219 34.05347656 22.82398437 34.04882812 23.69921875 C34.03702874 25.79950909 34.01909306 27.8997633 34 30 C33.67 30 33.34 30 33 30 C32.505 21.09 32.505 21.09 32 12 C29.525 11.505 29.525 11.505 27 11 C27.99 10.67 28.98 10.34 30 10 C30 9.34 30 8.68 30 8 C28.35 8 26.7 8 25 8 C25 7.01 25 6.02 25 5 C20.65601227 1.20231499 16.23756157 1.70802812 10.8125 1.9375 C7.85549505 2.04684637 4.96306784 2.06727597 2 2 C1.34 1.34 0.68 0.68 0 0 Z " fill="#3BC0EB" transform="translate(134,8)"/>
<path d="M0 0 C0.66 0.33 1.32 0.66 2 1 C0.02 2.65 -1.96 4.3 -4 6 C-3.67 6.66 -3.34 7.32 -3 8 C-3.99 8.33 -4.98 8.66 -6 9 C-6.33 9.66 -6.66 10.32 -7 11 C-8.66611905 11.042721 -10.33382885 11.04063832 -12 11 C-12.33 10.67 -12.66 10.34 -13 10 C-14.32 11.32 -15.64 12.64 -17 14 C-18.32 12.68 -19.64 11.36 -21 10 C-20.10861328 9.67128906 -20.10861328 9.67128906 -19.19921875 9.3359375 C-13.22576479 7.05060364 -7.76684115 4.31066107 -2.25 1.07421875 C-1.5075 0.71972656 -0.765 0.36523438 0 0 Z " fill="#1F79D8" transform="translate(81,134)"/>
<path d="M0 0 C0 1.32 0 2.64 0 4 C-3.79165074 4.0289337 -7.58327327 4.04677601 -11.375 4.0625 C-12.45523438 4.07087891 -13.53546875 4.07925781 -14.6484375 4.08789062 C-16.1953125 4.09272461 -16.1953125 4.09272461 -17.7734375 4.09765625 C-18.72653809 4.10289307 -19.67963867 4.10812988 -20.66162109 4.11352539 C-23 4 -23 4 -25 3 C-25 2.34 -25 1.68 -25 1 C-21.95843125 0.83135856 -18.91676547 0.66502247 -15.875 0.5 C-15.0190625 0.45230469 -14.163125 0.40460938 -13.28125 0.35546875 C-8.84778214 0.11674356 -4.44201651 -0.05825595 0 0 Z " fill="#CFDFF1" transform="translate(159,178)"/>
<path d="M0 0 C10.23 0 20.46 0 31 0 C31 0.99 31 1.98 31 3 C20.6135207 3.13430792 10.35694312 2.76214036 0 2 C0 1.34 0 0.68 0 0 Z " fill="#E3EBF3" transform="translate(76,179)"/>
<path d="M0 0 C1.32 0.33 2.64 0.66 4 1 C4.08674429 5.45821166 4.14030513 9.91620804 4.1875 14.375 C4.21263672 15.64601563 4.23777344 16.91703125 4.26367188 18.2265625 C4.27817383 20.04414062 4.27817383 20.04414062 4.29296875 21.8984375 C4.31653442 23.57945557 4.31653442 23.57945557 4.34057617 25.29443359 C4.22818604 26.18727051 4.1157959 27.08010742 4 28 C0.57905758 30.28062828 -0.68187222 30.21925007 -4.6875 30.125 C-6.17830078 30.09792969 -6.17830078 30.09792969 -7.69921875 30.0703125 C-8.45847656 30.04710938 -9.21773437 30.02390625 -10 30 C-10 29.67 -10 29.34 -10 29 C-7.03 28.67 -4.06 28.34 -1 28 C2.18099979 19.38479224 2.32677388 12.07705219 2 3 C1.34 2.67 0.68 2.34 0 2 C0 1.34 0 0.68 0 0 Z " fill="#54A541" transform="translate(27,76)"/>
<path d="M0 0 C0.33 0 0.66 0 1 0 C1 3.3 1 6.6 1 10 C3.64 10 6.28 10 9 10 C8.67 10.66 8.34 11.32 8 12 C6.25 12.4140625 6.25 12.4140625 4 12.625 C3.19175781 12.70105469 2.38351563 12.77710937 1.55078125 12.85546875 C-1.6297803 13.03568434 -4.77572405 12.98471202 -7.95703125 12.83984375 C-10.36185136 13.02836693 -11.92281931 13.80970545 -14 15 C-12.63016497 11.83884224 -12.0109362 11.0072908 -9 9 C-5.97670744 8.7389212 -3.04123758 8.91184819 0 9 C0 6.03 0 3.06 0 0 Z " fill="#89C56C" transform="translate(16,66)"/>
<path d="M0 0 C0 0.66 0 1.32 0 2 C0.66 2.33 1.32 2.66 2 3 C0.948125 2.979375 -0.10375 2.95875 -1.1875 2.9375 C-4.78258543 2.87571034 -4.78258543 2.87571034 -7.375 3.5 C-11.21822351 4.23204257 -15.0981467 4.27409713 -19 4 C-19.33 3.67 -19.66 3.34 -20 3 C-22.69082872 3.17635452 -25.32851446 3.61835921 -28 4 C-28 3.34 -28 2.68 -28 2 C-25.57373876 0.78686938 -23.8428418 0.79575159 -21.1328125 0.68359375 C-20.16472656 0.64169922 -19.19664063 0.59980469 -18.19921875 0.55664062 C-16.67748047 0.49766602 -16.67748047 0.49766602 -15.125 0.4375 C-14.11824219 0.39431641 -13.11148438 0.35113281 -12.07421875 0.30664062 C-8.04380996 0.13803787 -4.0347331 0 0 0 Z " fill="#2F89D1" transform="translate(114,129)"/>
<path d="M0 0 C0.66 0.33 1.32 0.66 2 1 C1.99476318 1.68626465 1.98952637 2.3725293 1.98413086 3.07958984 C1.96339044 6.17805064 1.95034924 9.27649686 1.9375 12.375 C1.92912109 13.45523438 1.92074219 14.53546875 1.91210938 15.6484375 C1.90727539 17.1953125 1.90727539 17.1953125 1.90234375 18.7734375 C1.89448853 20.20308838 1.89448853 20.20308838 1.88647461 21.66162109 C1.84357401 24.02324406 1.84357401 24.02324406 3 26 C1.68 26.33 0.36 26.66 -1 27 C-1.02886537 22.68751391 -1.04675255 18.37505238 -1.0625 14.0625 C-1.07087891 12.83080078 -1.07925781 11.59910156 -1.08789062 10.33007812 C-1.09111328 9.16025391 -1.09433594 7.99042969 -1.09765625 6.78515625 C-1.10289307 5.70113525 -1.10812988 4.61711426 -1.11352539 3.50024414 C-1 1 -1 1 0 0 Z " fill="#FCF5CB" transform="translate(1,39)"/>
<path d="M0 0 C0.81637939 -0.00902344 1.63275879 -0.01804687 2.47387695 -0.02734375 C6.78477482 -0.00599166 10.13539885 0.25074851 14.0625 2.25 C10.3125 3.375 10.3125 3.375 8.0625 2.25 C-2.08000643 1.61379936 -11.14054557 2.43169804 -20.9375 5.25 C-21.2675 4.26 -21.5975 3.27 -21.9375 2.25 C-14.62210592 0.61462248 -7.47245878 0.03444521 0 0 Z " fill="#3DAADB" transform="translate(100.9375,28.75)"/>
<path d="M0 0 C2.125 0.375 2.125 0.375 4 1 C3.01 1.66 2.02 2.32 1 3 C0.49156938 5.31753588 0.49156938 5.31753588 0.48828125 8.0078125 C0.45283203 8.99394531 0.41738281 9.98007813 0.38085938 10.99609375 C0.35830078 12.02863281 0.33574219 13.06117187 0.3125 14.125 C0.27833984 15.16527344 0.24417969 16.20554687 0.20898438 17.27734375 C0.12632942 19.85145507 0.05723845 22.42521829 0 25 C-2.49057251 22.50942749 -2.2565813 21.71527341 -2.265625 18.28125 C-2.26820312 17.34925781 -2.27078125 16.41726562 -2.2734375 15.45703125 C-2.26570312 14.48121094 -2.25796875 13.50539063 -2.25 12.5 C-2.25773438 11.52417969 -2.26546875 10.54835938 -2.2734375 9.54296875 C-2.27085938 8.61097656 -2.26828125 7.67898437 -2.265625 6.71875 C-2.26336914 5.86216797 -2.26111328 5.00558594 -2.25878906 4.12304688 C-2 2 -2 2 0 0 Z " fill="#E0F3D4" transform="translate(2,76)"/>
<path d="M0 0 C0.66 0.33 1.32 0.66 2 1 C1.67 1.66 1.34 2.32 1 3 C1.598125 3.28875 2.19625 3.5775 2.8125 3.875 C5 5 5 5 8 7 C8 7.66 8 8.32 8 9 C9.32 9 10.64 9 12 9 C12.99 9.33 13.98 9.66 15 10 C15 12.66666667 15 15.33333333 15 18 C9.66666667 12.66666667 4.33333333 7.33333333 -1 2 C-0.67 1.34 -0.34 0.68 0 0 Z " fill="#4CB9E3" transform="translate(128,35)"/>
<path d="M0 0 C0.66 0 1.32 0 2 0 C2 2.31 2 4.62 2 7 C1.34 6.01 0.68 5.02 0 4 C-2.66653905 3.63539547 -2.66653905 3.63539547 -5.625 3.8125 C-6.62789062 3.83957031 -7.63078125 3.86664063 -8.6640625 3.89453125 C-9.43492188 3.92933594 -10.20578125 3.96414062 -11 4 C-11 6.31 -11 8.62 -11 11 C-8.69 11 -6.38 11 -4 11 C-4 11.33 -4 11.66 -4 12 C-6.64 12 -9.28 12 -12 12 C-12 8.7 -12 5.4 -12 2 C-11.21753906 1.93941406 -10.43507813 1.87882812 -9.62890625 1.81640625 C-8.61699219 1.73261719 -7.60507812 1.64882812 -6.5625 1.5625 C-5.55316406 1.48128906 -4.54382813 1.40007812 -3.50390625 1.31640625 C-1.06359221 1.26788532 -1.06359221 1.26788532 0 0 Z " fill="#1E4C8C" transform="translate(29,64)"/>
<path d="M0 0 C6.50731982 -0.25028153 6.50731982 -0.25028153 8.953125 0.9921875 C11.30831938 2.15180611 12.88961855 2.26787932 15.5 2.25 C16.2528125 2.25515625 17.005625 2.2603125 17.78125 2.265625 C20.24178979 1.97105333 21.8146222 1.1282235 24 0 C27.25 -0.125 27.25 -0.125 30 0 C30 0.33 30 0.66 30 1 C29.05125 1.309375 28.1025 1.61875 27.125 1.9375 C24.13919592 2.87394742 24.13919592 2.87394742 22 4 C19.89768123 4.09751547 17.79207377 4.12976687 15.6875 4.125 C14.55699219 4.12757812 13.42648438 4.13015625 12.26171875 4.1328125 C9.36648505 4.01492274 6.8124284 3.65688207 4 3 C2.6078125 2.7215625 2.6078125 2.7215625 1.1875 2.4375 C0.465625 2.293125 -0.25625 2.14875 -1 2 C-0.67 1.34 -0.34 0.68 0 0 Z M2 3 C4 4 4 4 4 4 Z " fill="#EAA35D" transform="translate(85,81)"/>
<path d="M0 0 C0 2.31 0 4.62 0 7 C-4.16138263 7.08159574 -7.9472484 6.98248524 -12 6 C-10.04783565 4.04783565 -8.46800047 3.15173355 -6 2 C-6 1.67 -6 1.34 -6 1 C-1.125 0 -1.125 0 0 0 Z " fill="#B7D0EB" transform="translate(159,169)"/>
<path d="M0 0 C0.99 0.33 1.98 0.66 3 1 C3.22262303 7.7281627 2.95021536 13.53991163 1 20 C-1 18 -1 18 -1.125 15.375 C-1.08375 14.59125 -1.0425 13.8075 -1 13 C-0.34 13 0.32 13 1 13 C0.85831863 11.56208484 0.71148957 10.1246763 0.5625 8.6875 C0.48128906 7.88699219 0.40007813 7.08648437 0.31640625 6.26171875 C0.04734307 3.83912821 0.04734307 3.83912821 -1 1 C-0.67 0.67 -0.34 0.34 0 0 Z " fill="#247CCE" transform="translate(61,113)"/>
<path d="M0 0 C3.78851112 1.78901914 6.27633807 3.88998268 8.28515625 7.6171875 C9.86548332 12.8849444 9.2714892 18.56267466 9 24 C8.67 24 8.34 24 8 24 C7.96261719 23.11957031 7.92523438 22.23914063 7.88671875 21.33203125 C7.82097656 20.17058594 7.75523438 19.00914063 7.6875 17.8125 C7.60048828 16.08966797 7.60048828 16.08966797 7.51171875 14.33203125 C6.82185928 9.84004557 5.1811685 7.1811685 2 4 C1.01 4.495 1.01 4.495 0 5 C0 3.35 0 1.7 0 0 Z " fill="#EE8D49" transform="translate(117,82)"/>
<path d="M0 0 C3.63 0 7.26 0 11 0 C11 0.66 11 1.32 11 2 C5.67132017 3.10941367 0.53718145 3.11548069 -4.875 3.0625 C-5.75414062 3.05798828 -6.63328125 3.05347656 -7.5390625 3.04882812 C-9.69273803 3.03712337 -11.84637817 3.01919069 -14 3 C-14 2.67 -14 2.34 -14 2 C-9.38 1.67 -4.76 1.34 0 1 C0 0.67 0 0.34 0 0 Z " fill="#EAF3FA" transform="translate(148,176)"/>
<path d="M0 0 C-4.65042684 2.32521342 -7.31077871 3.11460021 -12.625 3.0625 C-13.81351563 3.05347656 -15.00203125 3.04445312 -16.2265625 3.03515625 C-17.14179688 3.02355469 -18.05703125 3.01195312 -19 3 C-19 2.34 -19 1.68 -19 1 C-12.62694402 0.25492456 -6.41688675 -0.10349817 0 0 Z " fill="#C1D8F0" transform="translate(153,172)"/>
<path d="M0 0 C0.66 0.33 1.32 0.66 2 1 C0.02 2.65 -1.96 4.3 -4 6 C-3.67 6.66 -3.34 7.32 -3 8 C-4.875 8.625 -4.875 8.625 -7 9 C-7.66 8.34 -8.32 7.68 -9 7 C-9.66 6.67 -10.32 6.34 -11 6 C-9.21385682 4.96953278 -7.42089982 3.95086764 -5.625 2.9375 C-4.62726563 2.36902344 -3.62953125 1.80054688 -2.6015625 1.21484375 C-1.74304688 0.81394531 -0.88453125 0.41304687 0 0 Z M-8 9 C-7.67 9.66 -7.34 10.32 -7 11 C-7.66 10.67 -8.32 10.34 -9 10 C-8.67 9.67 -8.34 9.34 -8 9 Z " fill="#2B83D6" transform="translate(81,134)"/>
<path d="M0 0 C0.99 0 1.98 0 3 0 C3.33 0.99 3.66 1.98 4 3 C-1.29230769 7.92307692 -1.29230769 7.92307692 -4.875 8.3125 C-5.926875 8.1578125 -5.926875 8.1578125 -7 8 C-6.34 7.01 -5.68 6.02 -5 5 C-4.34 5 -3.68 5 -3 5 C-3 4.34 -3 3.68 -3 3 C-2.01 3 -1.02 3 0 3 C0 2.01 0 1.02 0 0 Z " fill="#FB7A27" transform="translate(19,138)"/>
<path d="M0 0 C1.32 0.33 2.64 0.66 4 1 C4 9.91 4 18.82 4 28 C3.67 28 3.34 28 3 28 C2.67 19.75 2.34 11.5 2 3 C1.34 2.67 0.68 2.34 0 2 C0 1.34 0 0.68 0 0 Z " fill="#3C936C" transform="translate(27,76)"/>
<path d="M0 0 C0.99 0 1.98 0 3 0 C4.7578125 5.95703125 4.7578125 5.95703125 5 8 C4.01 9.485 4.01 9.485 3 11 C2.30034557 9.73581754 1.61565237 8.46334598 0.9375 7.1875 C0.55464844 6.47980469 0.17179688 5.77210937 -0.22265625 5.04296875 C-1 3 -1 3 0 0 Z " fill="#33B1E9" transform="translate(144,52)"/>
<path d="M0 0 C0 3.15081975 -0.27898465 4.41847698 -2 7 C-4 7.875 -4 7.875 -6 8 C-6.66 7.34 -7.32 6.68 -8 6 C-5.36 4.02 -2.72 2.04 0 0 Z " fill="#2A8EDA" transform="translate(134,117)"/>
<path d="M0 0 C1.32 0.99 2.64 1.98 4 3 C1.69 4.98 -0.62 6.96 -3 9 C-3.33 8.01 -3.66 7.02 -4 6 C-2.625 3.9375 -2.625 3.9375 -1 2 C-0.67 1.34 -0.34 0.68 0 0 Z " fill="#2EA1E1" transform="translate(65,39)"/>
<path d="M0 0 C1.76462683 3.08809695 2 4.23312136 2 8 C0.68 8 -0.64 8 -2 8 C-2 5.69 -2 3.38 -2 1 C-1.34 0.67 -0.68 0.34 0 0 Z " fill="#0447BD" transform="translate(29,67)"/>
<path d="M0 0 C0.99 0.33 1.98 0.66 3 1 C3 3.66666667 3 6.33333333 3 9 C1.35 7.35 -0.3 5.7 -2 4 C-1 1 -1 1 0 0 Z " fill="#35B6E9" transform="translate(140,44)"/>
<path d="M0 0 C-0.66 1.32 -1.32 2.64 -2 4 C-2.66 4 -3.32 4 -4 4 C-4 5.65 -4 7.3 -4 9 C-4.99 9 -5.98 9 -7 9 C-6.53149863 4.78348764 -4.94559315 0 0 0 Z " fill="#1B52B1" transform="translate(25,9)"/>
<path d="M0 0 C0.33 0.66 0.66 1.32 1 2 C0.33730939 3.66825159 -0.33005782 5.33464728 -1 7 C-1.2759478 8.92903132 -1.48449903 10.8689032 -1.625 12.8125 C-1.69976562 13.78832031 -1.77453125 14.76414062 -1.8515625 15.76953125 C-1.90054688 16.50558594 -1.94953125 17.24164063 -2 18 C-2.33 18 -2.66 18 -3 18 C-3.08150744 15.93816367 -3.1394194 13.87538651 -3.1875 11.8125 C-3.22230469 10.66394531 -3.25710937 9.51539062 -3.29296875 8.33203125 C-2.97622579 4.72960801 -2.08533398 2.90633161 0 0 Z " fill="#EC8F4A" transform="translate(78,87)"/>
<path d="M0 0 C0.66 0.33 1.32 0.66 2 1 C0.02 1.99 0.02 1.99 -2 3 C-2 4.32 -2 5.64 -2 7 C-2.99 7.66 -3.98 8.32 -5 9 C-5.66 9.99 -6.32 10.98 -7 12 C-6.43417868 8.03925073 -5.30304271 5.27740694 -3 2 C-2.01 1.34 -1.02 0.68 0 0 Z " fill="#ECA14F" transform="translate(93,49)"/>
<path d="M0 0 C2.9375 0.375 2.9375 0.375 6 1 C6.33 1.66 6.66 2.32 7 3 C4.69 3.66 2.38 4.32 0 5 C0 4.34 0 3.68 0 3 C-0.66 2.67 -1.32 2.34 -2 2 C-1.34 2 -0.68 2 0 2 C0 1.34 0 0.68 0 0 Z " fill="#1A89E2" transform="translate(125,124)"/>
<path d="M0 0 C1.98 0 3.96 0 6 0 C5.19152271 1.16945792 4.37810888 2.33550461 3.5625 3.5 C3.11003906 4.1496875 2.65757813 4.799375 2.19140625 5.46875 C1.79824219 5.9740625 1.40507813 6.479375 1 7 C0.67 7 0.34 7 0 7 C0 4.69 0 2.38 0 0 Z " fill="#0E78D7" transform="translate(31,8)"/>
<path d="M0 0 C0.66 0.33 1.32 0.66 2 1 C2.99 0.67 3.98 0.34 5 0 C4.67 1.32 4.34 2.64 4 4 C3.34 4 2.68 4 2 4 C1.67 4.66 1.34 5.32 1 6 C0.01 6 -0.98 6 -2 6 C-1.34 4.02 -0.68 2.04 0 0 Z " fill="#2E9CE0" transform="translate(147,97)"/>
<path d="M0 0 C0 0.99 0 1.98 0 3 C2.475 3.99 2.475 3.99 5 5 C4.01 5.495 4.01 5.495 3 6 C0.8359375 5.22265625 0.8359375 5.22265625 -1.625 4.0625 C-2.44226563 3.68222656 -3.25953125 3.30195312 -4.1015625 2.91015625 C-4.72804688 2.60980469 -5.35453125 2.30945312 -6 2 C-3 0 -3 0 0 0 Z " fill="#45B6E3" transform="translate(122,31)"/>
<path d="M0 0 C0.33 0.99 0.66 1.98 1 3 C3.97 3 6.94 3 10 3 C10 3.33 10 3.66 10 4 C8.20841511 4.02696365 6.41671527 4.04637917 4.625 4.0625 C3.62726562 4.07410156 2.62953125 4.08570313 1.6015625 4.09765625 C-1 4 -1 4 -3 3 C-3 2.34 -3 1.68 -3 1 C-2.01 0.67 -1.02 0.34 0 0 Z " fill="#E68544" transform="translate(7,143)"/>
<path d="M0 0 C1.65 0.33 3.3 0.66 5 1 C3.5625 3.0625 3.5625 3.0625 1 5 C-2.07583023 5.05823431 -4.98735648 4.59222907 -8 4 C-8 3.67 -8 3.34 -8 3 C-5.36 3 -2.72 3 0 3 C0 2.01 0 1.02 0 0 Z " fill="#FDF1D9" transform="translate(93,77)"/>
<path d="M0 0 C2.31 0 4.62 0 7 0 C7.33 0.66 7.66 1.32 8 2 C4.67465243 3.10844919 2.37817425 2.84454356 -1 2 C-0.67 1.34 -0.34 0.68 0 0 Z M2 3 C4 4 4 4 4 4 Z " fill="#EF9543" transform="translate(85,81)"/>
<path d="M0 0 C1.32 0.33 2.64 0.66 4 1 C4 1.66 4 2.32 4 3 C5.65 2.67 7.3 2.34 9 2 C8.67 2.99 8.34 3.98 8 5 C4.75791433 4.64950425 3.38472296 4.43778819 1.1875 1.9375 C0.795625 1.298125 0.40375 0.65875 0 0 Z " fill="#F29445" transform="translate(88,72)"/>
<path d="M0 0 C2.475 0.99 2.475 0.99 5 2 C3.68 3.32 2.36 4.64 1 6 C0.34 5.34 -0.32 4.68 -1 4 C-0.625 1.875 -0.625 1.875 0 0 Z " fill="#36A7E2" transform="translate(71,34)"/>
<path d="M0 0 C-2.35953094 2.35953094 -3.77895617 2.49141413 -7 3 C-7.33 2.01 -7.66 1.02 -8 0 C-4.71303767 -0.79953138 -3.28976808 -1.09658936 0 0 Z " fill="#2AA4E2" transform="translate(87,31)"/>
<path d="M0 0 C0.99 0.33 1.98 0.66 3 1 C3.6875 3.0625 3.6875 3.0625 4 5 C2.35 4.67 0.7 4.34 -1 4 C-1.33 3.01 -1.66 2.02 -2 1 C-1.34 0.67 -0.68 0.34 0 0 Z " fill="#28B9F2" transform="translate(130,30)"/>
<path d="M0 0 C2.475 0.495 2.475 0.495 5 1 C3.515 3.475 3.515 3.475 2 6 C0 3 0 3 0 0 Z " fill="#1B4AB3" transform="translate(154,191)"/>
<path d="M0 0 C1.65 0 3.3 0 5 0 C5 0.99 5 1.98 5 3 C2.69 3 0.38 3 -2 3 C-1.34 2.67 -0.68 2.34 0 2 C0 1.34 0 0.68 0 0 Z " fill="#C6D7E9" transform="translate(154,179)"/>
<path d="M0 0 C1.32 0.66 2.64 1.32 4 2 C1.69 3.32 -0.62 4.64 -3 6 C-1.125 1.125 -1.125 1.125 0 0 Z " fill="#287ACF" transform="translate(160,164)"/>
<path d="M0 0 C0.33 0 0.66 0 1 0 C1 1.98 1 3.96 1 6 C-0.32 6 -1.64 6 -3 6 C-3 5.01 -3 4.02 -3 3 C-2.34 3 -1.68 3 -1 3 C-0.67 2.01 -0.34 1.02 0 0 Z " fill="#E69424" transform="translate(28,59)"/>
<path d="M0 0 C4.7517398 0.43197635 6.92000054 1.32769295 10 5 C5.59885603 4.49701212 3.28804981 2.91227269 0 0 Z " fill="#4EC2E4" transform="translate(152,8)"/>
</svg>
